<svg width="419" height="419" viewBox="0 0 419 419" fill="none" xmlns="http://www.w3.org/2000/svg">
<path fill-rule="evenodd" clip-rule="evenodd" d="M210.55 0.862589C251.521 0.862181 284.094 0.861976 309.835 3.98889C336.318 7.20574 358.227 13.9839 376.37 29.4796C381.127 33.5431 385.558 37.9743 389.623 42.7322C405.116 60.8752 411.895 82.7834 415.113 109.266C418.239 135.007 418.239 170.241 418.239 211.213C418.239 252.183 418.239 284.755 415.113 310.496C411.895 336.979 405.116 358.888 389.623 377.031C385.558 381.788 381.127 386.22 376.37 390.284C358.227 405.778 336.318 412.556 309.835 415.774C284.094 418.9 248.86 418.9 207.888 418.9C166.918 418.9 134.346 418.9 108.605 415.774C82.1223 412.556 60.214 405.778 42.071 390.284C37.3131 386.22 32.882 381.788 28.8184 377.031C13.3227 358.888 6.54458 336.979 3.32773 310.496C0.200812 284.755 0.201017 252.183 0.201425 211.211C0.201017 170.241 0.200812 135.008 3.32773 109.266C6.54458 82.7834 13.3227 60.8752 28.8184 42.7322C32.882 37.9743 37.3131 33.5431 42.071 29.4796C60.214 13.9839 82.1223 7.20574 108.605 3.98889C134.347 0.861976 169.58 0.862181 210.55 0.862589ZM42.852 305.695C45.597 328.292 50.7425 341.396 59.0943 351.174C61.8034 354.345 64.7576 357.3 67.9296 360.01C77.7084 368.36 90.8109 373.507 113.408 376.252C136.469 379.052 166.62 379.086 209.222 379.086C251.823 379.086 281.975 379.052 305.036 376.252C327.633 373.507 340.735 368.36 350.515 360.01C353.686 357.3 356.64 354.345 359.351 351.174C367.701 341.396 372.846 328.292 375.593 305.695C376.645 297.033 377.306 287.369 377.722 276.421L342.388 241.087C335.465 234.164 326.073 230.273 316.28 230.273C306.488 230.273 297.096 234.164 290.172 241.087L250.006 281.253L169.056 200.303C162.132 193.38 152.74 189.489 142.948 189.489C133.155 189.489 123.764 193.38 116.839 200.303L40.7217 276.421C41.1379 287.369 41.7998 297.033 42.852 305.695ZM280.592 92.6269C266.514 92.6269 255.102 104.039 255.102 118.117C255.102 132.195 266.514 143.607 280.592 143.607C294.671 143.607 306.082 132.195 306.082 118.117C306.082 104.039 294.671 92.6269 280.592 92.6269Z" fill="#3F8AFF"/>
</svg>
